<svg xmlns="http://www.w3.org/2000/svg" viewBox="-834.727 446.149 148.281 78.832"><defs><style>.a{fill:#fff;}</style></defs><g transform="translate(-943.8 302.914)"><path class="a" d="M233.469,166.906v16.315c0,12.49-9.677,22.729-21.491,22.729-11.589,0-21.266-10.239-21.378-22.616V150.141c0-12.489,9.677-22.841,21.378-22.841s21.379,10.239,21.491,22.729Zm-12.714-7.764c-.338.45-.562.563-.675.788-4.5,9.676-9,19.466-13.615,29.142-.563,1.125,0,1.575.788,2.138a8.807,8.807,0,0,0,13.277-6.976C221.092,176.02,220.755,167.694,220.755,159.142Zm-3.6-16.2c-2.138-1.575-4.276-2.363-6.751-1.8-4.388,1.013-7.314,4.951-7.314,10.464-.112,6.3,0,12.6,0,18.9a11.839,11.839,0,0,0,.338,2.025C208.153,162.293,212.541,152.616,217.154,142.94Z" transform="translate(23.884 15.935)"/><path class="a" d="M186.916,151.2H174.539a37.952,37.952,0,0,0-1.125-3.825c-1.688-3.938-5.626-6.414-9.226-5.851a9.825,9.825,0,0,0-7.876,8.889C156.2,153,156.2,155.7,156.2,158.4v2.363a49.4,49.4,0,0,1,7.764-1.463c10.8-.562,19.578,6.526,22.278,17.778,2.7,11.477-3.151,23.629-13.5,27.567-13.727,5.4-28.8-5.288-29.03-20.591q-.169-17.046,0-34.093c.113-11.252,9.339-21.378,19.691-22.053,11.589-.675,21.378,7.426,23.066,19.241C186.579,148.27,186.691,149.508,186.916,151.2ZM156.2,182.588c0,5.288,4.051,9.677,9,9.564,4.726,0,8.889-4.613,8.889-9.564,0-5.063-4.388-9.9-9-9.789C160.362,172.687,156.2,177.3,156.2,182.588Z" transform="translate(18.004 16.006)"/><path class="a" d="M135.042,167a25.58,25.58,0,0,1,.112,30.717c-5.963,7.651-15.865,10.352-24.417,6.639-8.439-3.6-14.4-13.165-13.5-21.716H108.6c1.688,2.7,2.813,5.4,4.613,7.314a7.879,7.879,0,0,0,10.239.788,9.822,9.822,0,0,0,3.713-10.352,8.973,8.973,0,0,0-8.1-6.751c-1.688-.113-3.488,0-5.288,0V160.021c1.688,0,3.488.113,5.176,0a9,9,0,0,0,8.551-8.439,9.384,9.384,0,0,0-7.2-10.014c-4.163-.9-8.1,1.8-9.339,6.414q-.338,1.35-.675,3.038H97.123c-1.35-6.976,4.051-16.878,11.589-21.041a20.434,20.434,0,0,1,24.754,4.051C141.68,142.581,142.13,153.382,135.042,167Z" transform="translate(12.157 15.957)"/></g></svg>