<svg xmlns="http://www.w3.org/2000/svg" viewBox="-944 302.914 366.64 268.707"><defs><style>.a{fill:#fff;}</style></defs><g transform="translate(-943.8 302.914)"><path class="a" d="M.025,123.657c.45-3.488.788-6.976,1.35-10.464.338-2.25.788-4.613,1.125-6.864h.9c.675,6.751,1.35,13.5,1.913,20.253a33.887,33.887,0,0,1,.113,5.851c0,1.238.45,1.688,1.688,1.688,15.3-.675,30.492-1.238,45.795-1.913a5.521,5.521,0,0,0,1.238-.113c.338-4.163.563-8.214.9-12.264A134.725,134.725,0,0,1,81.713,51.646c1.013-1.238,2.925-1.8,4.613-2.363a18.17,18.17,0,0,1,3.713-.338,3.451,3.451,0,0,1-.113,1.463c-.788,2.138-1.8,4.276-2.588,6.414-.788,2.25-.675,2.363,1.463,2.138a128.124,128.124,0,0,0-24.529,73.024q118.819-2.869,238.2,0c-1.125-33.755-12.94-62.56-35.893-86.076-31.73-32.63-79.325-44.67-123.545-28.129-.788-1.8-1.8-2.475-3.713-1.125a2.4,2.4,0,0,1-2.588-.225c-1.463-1.575-2.7-.788-4.051-.113a5.451,5.451,0,0,1-1.913,0,3.879,3.879,0,0,1,.9-1.8c2.25-1.913,4.613-3.713,6.976-5.513a9.977,9.977,0,0,1,2.813-1.575A121.552,121.552,0,0,1,172.965.45a3.2,3.2,0,0,0,1.35-.45h18.34c3.038.45,5.963.9,9,1.35,53.446,7.539,97.778,51.083,108.13,106.329,1.463,7.989,2.138,16.2,3.15,24.416,15.64.563,31.73,1.238,48.158,1.913.112-9.114.563-18.34,2.588-27.567,3.713,8.326,3.713,45.457-.225,55.584-.563-4.5-1.238-9-1.688-13.5s-.45-9-.788-13.84c-16.09.675-32.293,1.238-48.5,1.913-1.575,41.519-17.328,75.837-48.158,102.166-23.966,20.478-51.871,30.38-82.813,29.93-71.336-1.125-126.47-61.21-127.6-132.1-16.09-.675-32.18-1.238-48.158-1.913-.788,9.226-1.688,18.34-2.475,27.567H2.275c-.45-2.25-.9-4.388-1.125-6.639L-.2,145.148C.025,137.947.025,130.746.025,123.657ZM64.5,136.709c-.45,31.167,14.627,75.274,54.8,102.054,40.506,27,92.377,26.217,131.758-2.588,32.855-24.079,49.508-57.5,51.646-99.466C222.923,138.622,143.71,138.509,64.5,136.709Z" transform="translate(0 0)"/><path class="a" d="M113.179,29.015a12.863,12.863,0,0,1-13.165,13.277c-6.976,0-12.714-5.963-12.714-13.277A13.335,13.335,0,0,1,100.352,15.4C107.553,15.4,113.179,21.363,113.179,29.015Z" transform="translate(10.953 1.928)"/></g></svg>