<svg xmlns="http://www.w3.org/2000/svg" viewBox="1839 890 40 40">
  <defs>
    <style>
      .cls-1 {
        fill-rule: evenodd;
        opacity: 0.05;
      }
    </style>
  </defs>
  <path id="Combined-Shape" class="cls-1" d="M0,38.59l2.83-2.83,1.41,1.41L1.41,40H0ZM0,1.4,2.83,4.23,4.24,2.82,1.41,0H0V1.41ZM38.59,40l-2.83-2.83,1.41-1.41L40,38.59V40ZM40,1.41,37.17,4.24,35.76,2.83,38.59,0H40ZM20,18.6l2.83-2.83,1.41,1.41L21.41,20l2.83,2.83-1.41,1.41L20,21.41l-2.83,2.83-1.41-1.41L18.59,20l-2.83-2.83,1.41-1.41L20,18.59Z" transform="translate(1839 890)"/>
</svg>
