<svg xmlns="http://www.w3.org/2000/svg" viewBox="1370.449 12896.443 62.256 45.627"><defs><style>.a{fill:#2d2d2d;}</style></defs><g transform="translate(1370.649 12896.443)"><path class="a" d="M-.162,21c.076-.592.134-1.185.229-1.777.057-.382.134-.783.191-1.165H.411c.115,1.146.229,2.293.325,3.439a5.754,5.754,0,0,1,.019.994c0,.21.076.287.287.287,2.6-.115,5.178-.21,7.776-.325a.937.937,0,0,0,.21-.019c.057-.707.1-1.395.153-2.083A22.877,22.877,0,0,1,13.709,8.77a1.7,1.7,0,0,1,.783-.4,3.085,3.085,0,0,1,.63-.057.586.586,0,0,1-.019.248c-.134.363-.306.726-.439,1.089-.134.382-.115.4.248.363a21.756,21.756,0,0,0-4.165,12.4q20.176-.487,40.447,0A21.2,21.2,0,0,0,45.1,7.8,19.531,19.531,0,0,0,24.122,3.019c-.134-.306-.306-.42-.63-.191a.407.407,0,0,1-.439-.038c-.248-.267-.459-.134-.688-.019a.926.926,0,0,1-.325,0,.659.659,0,0,1,.153-.306c.382-.325.783-.63,1.185-.936a1.694,1.694,0,0,1,.478-.267A20.64,20.64,0,0,1,29.2.076.543.543,0,0,0,29.433,0h3.114l1.528.229c9.075,1.28,16.6,8.674,18.361,18.055.248,1.357.363,2.751.535,4.146,2.656.1,5.388.21,8.177.325a22.97,22.97,0,0,1,.439-4.681c.63,1.414.63,7.719-.038,9.438-.1-.764-.21-1.528-.287-2.293s-.076-1.528-.134-2.35c-2.732.115-5.483.21-8.235.325a22.969,22.969,0,0,1-8.177,17.348,20.6,20.6,0,0,1-14.062,5.082C18.543,45.434,9.181,35.231,8.99,23.194c-2.732-.115-5.464-.21-8.177-.325-.134,1.567-.287,3.114-.42,4.681H.22c-.076-.382-.153-.745-.191-1.127L-.2,24.647C-.162,23.424-.162,22.2-.162,21Zm10.948,2.216a21.088,21.088,0,0,0,9.3,17.329A19.387,19.387,0,0,0,42.463,40.1c5.579-4.089,8.407-9.763,8.77-16.89C37.687,23.538,24.236,23.519,10.786,23.214Z"/><g transform="translate(18.333 8.712)"><path class="a" d="M105.3,58.119h-2.1c-.363-2.254-.707-4.509-1.07-6.744h-.076c-.344,2.235-.707,4.49-1.07,6.744H98.863c-.688-4.146-1.376-8.254-2.063-12.4h1.968c.382,2.484.783,4.987,1.165,7.47h.076c.363-2.484.726-4.948,1.089-7.451h1.987c.363,2.5.726,5.006,1.108,7.509h.057c.382-2.407.764-4.815,1.127-7.222.038-.248.1-.325.344-.325.554.019,1.108,0,1.681,0C106.678,49.846,105.99,53.973,105.3,58.119Z" transform="translate(-96.8 -45.681)"/><path class="a" d="M156.45,45.719q1.347,6.19,2.713,12.381h-1.968c-.21-.936-.4-1.853-.611-2.77-.019-.115-.134-.287-.21-.287-.879-.019-1.758-.019-2.637-.019-.229,1.032-.439,2.025-.669,3.057H151.1c.9-4.127,1.8-8.235,2.694-12.381C154.654,45.719,155.533,45.719,156.45,45.719Zm-1.318,3.057h-.057c-.306,1.395-.611,2.809-.917,4.222h1.891C155.762,51.566,155.437,50.171,155.131,48.776Z" transform="translate(-140.725 -45.681)"/><path class="a" d="M198.422,45.619c-.115.344-.229.65-.344.974-.726,2.063-1.471,4.108-2.2,6.171a2.281,2.281,0,0,0-.115.707c-.019,1.376,0,2.751,0,4.127v.439h-1.949V56.471a19.93,19.93,0,0,0-.057-3.382,22.352,22.352,0,0,0-1.07-3.191c-.459-1.318-.936-2.656-1.395-3.974a2.5,2.5,0,0,1-.1-.287h2.1c.478,1.433.974,2.9,1.49,4.452.076-.191.134-.325.172-.439.42-1.242.841-2.465,1.261-3.707.076-.248.172-.344.439-.344C197.218,45.638,197.792,45.619,198.422,45.619Z" transform="translate(-173.164 -45.6)"/></g><path class="a" d="M91.694,17.712a2.184,2.184,0,0,1-2.235,2.254A2.215,2.215,0,0,1,87.3,17.712,2.264,2.264,0,0,1,89.516,15.4,2.221,2.221,0,0,1,91.694,17.712Z" transform="translate(-70.782 -12.458)"/><g transform="translate(18.355 24.322)"><path class="a" d="M197.879,134.025v2.77a3.645,3.645,0,1,1-7.279.019v-5.636a3.646,3.646,0,1,1,7.279-.019Zm-2.159-1.318c-.057.076-.1.1-.115.134-.764,1.643-1.528,3.305-2.312,4.948-.1.191,0,.267.134.363a1.5,1.5,0,0,0,2.254-1.185C195.778,135.573,195.72,134.159,195.72,132.707Zm-.611-2.751a1.351,1.351,0,0,0-1.146-.306,1.685,1.685,0,0,0-1.242,1.777c-.019,1.07,0,2.14,0,3.21a2.011,2.011,0,0,0,.057.344C193.58,133.242,194.326,131.6,195.109,129.956Z" transform="translate(-172.701 -127.3)"/><path class="a" d="M150.976,131.827h-2.1a6.441,6.441,0,0,0-.191-.65,1.55,1.55,0,0,0-1.567-.993,1.668,1.668,0,0,0-1.337,1.509c-.019.439-.019.9-.019,1.357v.4a8.389,8.389,0,0,1,1.318-.248,3.671,3.671,0,0,1,3.783,3.019,4.024,4.024,0,0,1-2.293,4.681,3.689,3.689,0,0,1-4.929-3.5q-.029-2.895,0-5.789a3.835,3.835,0,0,1,3.344-3.745,3.712,3.712,0,0,1,3.917,3.267C150.919,131.33,150.938,131.54,150.976,131.827Zm-5.216,5.331a1.568,1.568,0,0,0,1.528,1.624,1.629,1.629,0,0,0,1.509-1.624,1.669,1.669,0,0,0-1.528-1.662A1.613,1.613,0,0,0,145.76,137.157Z" transform="translate(-134.701 -127.757)"/><path class="a" d="M103.39,134.184a4.344,4.344,0,0,1,.019,5.216,3.482,3.482,0,0,1-4.146,1.127,3.844,3.844,0,0,1-2.293-3.687H98.9a8.2,8.2,0,0,0,.783,1.242,1.338,1.338,0,0,0,1.739.134,1.668,1.668,0,0,0,.631-1.758,1.524,1.524,0,0,0-1.376-1.146c-.287-.019-.592,0-.9,0V133c.287,0,.592.019.879,0a1.528,1.528,0,0,0,1.452-1.433,1.593,1.593,0,0,0-1.223-1.7,1.367,1.367,0,0,0-1.586,1.089q-.057.229-.115.516H96.951a3.853,3.853,0,0,1,1.968-3.573,3.47,3.47,0,0,1,4.2.688C104.517,130.038,104.593,131.872,103.39,134.184Z" transform="translate(-96.916 -127.44)"/></g></g></svg>