<svg xmlns="http://www.w3.org/2000/svg" viewBox="-1292.551 265.443 122.147 89.521">
  <defs>
    <style>
      .cls-1 {
        fill: #fff;
      }
    </style>
  </defs>
  <g id="Group_3" data-name="Group 3" transform="translate(-1292.351 265.443)">
    <path id="Path_1" data-name="Path 1" class="cls-1" d="M-.125,41.2c.15-1.162.262-2.324.45-3.486.112-.75.262-1.537.375-2.287H1c.225,2.249.45,4.5.637,6.747a11.29,11.29,0,0,1,.037,1.949c0,.412.15.562.562.562,5.1-.225,10.159-.412,15.257-.637a1.839,1.839,0,0,0,.412-.037c.112-1.387.187-2.736.3-4.086a44.884,44.884,0,0,1,8.884-22.716,3.334,3.334,0,0,1,1.537-.787,6.053,6.053,0,0,1,1.237-.112,1.15,1.15,0,0,1-.037.487c-.262.712-.6,1.424-.862,2.137-.262.75-.225.787.487.712a42.685,42.685,0,0,0-8.172,24.328q39.585-.956,79.357,0c-.375-11.246-4.311-20.842-11.958-28.676A38.32,38.32,0,0,0,47.519,5.923c-.262-.6-.6-.825-1.237-.375a.8.8,0,0,1-.862-.075c-.487-.525-.9-.262-1.349-.037a1.816,1.816,0,0,1-.637,0,1.292,1.292,0,0,1,.3-.6C44.483,4.2,45.27,3.6,46.057,3a3.324,3.324,0,0,1,.937-.525A40.5,40.5,0,0,1,57.49.15,1.066,1.066,0,0,0,57.94,0h6.11c1.012.15,1.987.3,3,.45,17.806,2.512,32.575,17.018,36.024,35.424.487,2.661.712,5.4,1.05,8.134,5.211.187,10.571.412,16.044.637a45.066,45.066,0,0,1,.862-9.184c1.237,2.774,1.237,15.144-.075,18.518-.187-1.5-.412-3-.562-4.5s-.15-3-.262-4.611c-5.36.225-10.758.412-16.156.637C103.448,59.34,98.2,70.773,87.929,79.544a40.421,40.421,0,0,1-27.589,9.971C36.573,89.141,18.205,69.123,17.83,45.508,12.47,45.283,7.11,45.1,1.787,44.87c-.262,3.074-.562,6.11-.825,9.184H.625c-.15-.75-.3-1.462-.375-2.212L-.2,48.356C-.125,45.957-.125,43.558-.125,41.2Zm21.479,4.348a41.375,41.375,0,0,0,18.255,34,38.037,38.037,0,0,0,43.9-.862C94.451,70.66,100,59.527,100.711,45.545,74.134,46.182,47.744,46.145,21.354,45.545Z"/>
    <path id="Path_2" data-name="Path 2" class="cls-1" d="M113.481,70.066h-4.123c-.712-4.423-1.387-8.847-2.1-13.232h-.15c-.675,4.386-1.387,8.809-2.1,13.232h-4.161C99.5,61.931,98.15,53.872,96.8,45.737h3.861c.75,4.873,1.537,9.784,2.287,14.657h.15c.712-4.873,1.424-9.709,2.137-14.619h3.9c.712,4.911,1.424,9.821,2.174,14.732h.112c.75-4.723,1.5-9.446,2.212-14.17.075-.487.187-.637.675-.637,1.087.037,2.174,0,3.3,0C116.18,53.834,114.831,61.931,113.481,70.066Z" transform="translate(-60.639 -28.569)"/>
    <path id="Path_3" data-name="Path 3" class="cls-1" d="M161.6,45.737q2.643,12.145,5.323,24.291h-3.861c-.412-1.837-.787-3.636-1.2-5.435-.038-.225-.262-.562-.412-.562-1.724-.037-3.449-.037-5.173-.037-.45,2.024-.862,3.973-1.312,6H151.1c1.762-8.1,3.524-16.156,5.285-24.291C158.072,45.737,159.8,45.737,161.6,45.737Zm-2.586,6H158.9c-.6,2.736-1.2,5.51-1.8,8.284h3.711C160.246,57.208,159.609,54.472,159.009,51.735Z" transform="translate(-94.584 -28.569)"/>
    <path id="Path_4" data-name="Path 4" class="cls-1" d="M205.37,45.638c-.225.675-.45,1.275-.675,1.912-1.424,4.048-2.886,8.059-4.311,12.108a4.474,4.474,0,0,0-.225,1.387c-.038,2.7,0,5.4,0,8.1V70h-3.824V66.929a39.1,39.1,0,0,0-.112-6.635,43.855,43.855,0,0,0-2.1-6.26c-.9-2.587-1.837-5.21-2.736-7.8a4.917,4.917,0,0,1-.187-.562h4.123c.937,2.811,1.912,5.7,2.924,8.734.15-.375.262-.637.337-.862.825-2.437,1.649-4.836,2.474-7.272.15-.487.337-.675.862-.675C203.008,45.675,204.133,45.638,205.37,45.638Z" transform="translate(-119.653 -28.507)"/>
    <path id="Path_5" data-name="Path 5" class="cls-1" d="M95.922,19.936a4.285,4.285,0,0,1-4.386,4.423A4.347,4.347,0,0,1,87.3,19.936,4.442,4.442,0,0,1,91.648,15.4,4.358,4.358,0,0,1,95.922,19.936Z" transform="translate(-54.7 -9.627)"/>
    <path id="Path_6" data-name="Path 6" class="cls-1" d="M204.882,140.495v5.435a7.152,7.152,0,1,1-14.282.037V134.91a7.154,7.154,0,1,1,14.282-.037Zm-4.236-2.587c-.112.15-.187.187-.225.262-1.5,3.224-3,6.485-4.536,9.709-.187.375,0,.525.262.712a2.934,2.934,0,0,0,4.423-2.324C200.759,143.531,200.646,140.757,200.646,137.908Zm-1.2-5.4a2.652,2.652,0,0,0-2.249-.6,3.306,3.306,0,0,0-2.437,3.486c-.037,2.1,0,4.2,0,6.3a3.947,3.947,0,0,0,.112.675C196.448,138.958,197.91,135.734,199.447,132.51Z" transform="translate(-119.278 -79.581)"/>
    <path id="Path_7" data-name="Path 7" class="cls-1" d="M158.048,135.638h-4.123a12.647,12.647,0,0,0-.375-1.274,3.042,3.042,0,0,0-3.074-1.949,3.273,3.273,0,0,0-2.624,2.961c-.038.862-.038,1.762-.038,2.662v.787a16.461,16.461,0,0,1,2.586-.487c3.6-.187,6.522,2.174,7.422,5.923a7.894,7.894,0,0,1-4.5,9.184c-4.573,1.8-9.6-1.762-9.671-6.86q-.056-5.679,0-11.358c.038-3.749,3.111-7.122,6.56-7.347a7.283,7.283,0,0,1,7.685,6.41C157.935,134.663,157.973,135.076,158.048,135.638ZM147.814,146.1a3.076,3.076,0,0,0,3,3.186,3.2,3.2,0,0,0,2.961-3.186,3.274,3.274,0,0,0-3-3.261A3.164,3.164,0,0,0,147.814,146.1Z" transform="translate(-89.911 -79.934)"/>
    <path id="Path_8" data-name="Path 8" class="cls-1" d="M109.617,140.64a8.522,8.522,0,0,1,.037,10.234,6.832,6.832,0,0,1-8.134,2.212,7.542,7.542,0,0,1-4.5-7.235h3.786a16.1,16.1,0,0,0,1.537,2.437,2.625,2.625,0,0,0,3.411.262,3.272,3.272,0,0,0,1.237-3.449,2.989,2.989,0,0,0-2.7-2.249c-.562-.037-1.162,0-1.762,0v-4.536c.562,0,1.162.038,1.724,0a3,3,0,0,0,2.849-2.811,3.126,3.126,0,0,0-2.4-3.336,2.682,2.682,0,0,0-3.111,2.137q-.113.45-.225,1.012H96.985c-.45-2.324,1.349-5.623,3.861-7.01a6.808,6.808,0,0,1,8.247,1.349C111.829,132.506,111.979,136.1,109.617,140.64Z" transform="translate(-60.711 -79.689)"/>
  </g>
</svg>
