<svg xmlns="http://www.w3.org/2000/svg" viewBox="1420.443 13529 28.208 28.208">
  <defs>
    <style>
      .cls-1 {
        fill: #111;
      }
    </style>
  </defs>
  <g id="social-media-instagram" transform="translate(1420.443 13529)">
    <path id="Path_10" data-name="Path 10" class="cls-1" d="M22.679,25.5a2.819,2.819,0,1,0-2.822-2.824A2.828,2.828,0,0,0,22.679,25.5Z" transform="translate(-8.576 -8.576)"/>
    <path id="Path_11" data-name="Path 11" class="cls-1" d="M33.611,16.679V13.96h-.354l-2.366.007.009,2.72Z" transform="translate(-13.341 -6.029)"/>
    <path id="Path_12" data-name="Path 12" class="cls-1" d="M14.1,0a14.1,14.1,0,1,0,14.1,14.1A14.12,14.12,0,0,0,14.1,0Zm8.021,12.458v6.567a3.1,3.1,0,0,1-3.1,3.1H9.183a3.1,3.1,0,0,1-3.1-3.1V9.184a3.1,3.1,0,0,1,3.1-3.1h9.841a3.1,3.1,0,0,1,3.1,3.1Z"/>
    <path id="Path_13" data-name="Path 13" class="cls-1" d="M24.3,23.575a4.387,4.387,0,1,1-8.452-1.646H13.457V28.5a1.537,1.537,0,0,0,1.537,1.536h9.841A1.538,1.538,0,0,0,26.373,28.5V21.929h-2.4A4.327,4.327,0,0,1,24.3,23.575Z" transform="translate(-5.812 -9.471)"/>
  </g>
</svg>
