<svg xmlns="http://www.w3.org/2000/svg" viewBox="-834.858 354.222 148.749 73.249"><defs><style>.a{fill:#fff;}</style></defs><g transform="translate(-943.8 302.914)"><path class="a" d="M146.87,118.837H134.493c-2.138-13.277-4.163-26.554-6.3-39.719h-.45c-2.025,13.165-4.163,26.442-6.3,39.719H108.952C104.9,94.42,100.851,70.229,96.8,45.812h11.589C110.64,60.44,113,75.18,115.253,89.807h.45c2.138-14.627,4.276-29.142,6.413-43.882h11.7c2.138,14.74,4.276,29.48,6.526,44.219h.338c2.25-14.177,4.5-28.354,6.638-42.532.225-1.463.563-1.913,2.025-1.913,3.263.113,6.526,0,9.9,0C154.972,70.116,150.921,94.42,146.87,118.837Z" transform="translate(12.142 5.721)"/><path class="a" d="M182.6,45.812q7.933,36.456,15.978,72.912H186.993c-1.238-5.513-2.363-10.914-3.6-16.315-.113-.675-.788-1.688-1.238-1.688-5.176-.113-10.352-.113-15.527-.113-1.35,6.076-2.588,11.927-3.938,18H151.1c5.288-24.3,10.577-48.5,15.865-72.912C172.028,45.812,177.2,45.812,182.6,45.812Zm-7.764,18H174.5c-1.8,8.214-3.6,16.54-5.4,24.866h11.139C178.554,80.243,176.642,72.029,174.841,63.815Z" transform="translate(18.939 5.721)"/><path class="a" d="M233.732,45.713c-.675,2.025-1.35,3.826-2.025,5.738-4.276,12.152-8.664,24.191-12.94,36.343a13.429,13.429,0,0,0-.675,4.163c-.113,8.1,0,16.2,0,24.3v2.588H206.615v-9.226c0-6.639.788-13.5-.337-19.916s-4.163-12.489-6.3-18.79c-2.7-7.764-5.513-15.64-8.214-23.4a14.762,14.762,0,0,1-.563-1.688h12.377c2.813,8.439,5.738,17.1,8.777,26.217.45-1.125.787-1.913,1.013-2.588,2.475-7.314,4.951-14.515,7.426-21.828.45-1.463,1.012-2.025,2.588-2.025C226.643,45.825,230.019,45.713,233.732,45.713Z" transform="translate(23.959 5.708)"/></g></svg>